<svg width="256" height="256" viewBox="0 0 256 256" fill="none" xmlns="http://www.w3.org/2000/svg">
<rect width="256" height="256" fill="white"/>
<rect x="19" y="11" width="220" height="220" rx="9.33673" fill="#23A668"/>
<path d="M19 20.3367C19 15.1802 23.1802 11 28.3367 11H129V111.663C129 116.82 124.82 121 119.663 121H28.3367C23.1802 121 19 116.82 19 111.663V20.3367Z" fill="#FFC519"/>
<path d="M129 11H229.663C234.82 11 239 15.1802 239 20.3367V111.663C239 116.82 234.82 121 229.663 121H138.337C133.18 121 129 116.82 129 111.663V11Z" fill="#EB4D3F"/>
<rect x="16" y="171.724" width="135.922" height="72.2762" rx="10.072" fill="#305DA8"/>
<g filter="url(#filter0_d_8_372)">
<path d="M71.3795 81.647C63.7309 81.647 57.5305 87.8474 57.5305 95.4959V167.046C57.5305 174.694 63.7309 180.895 71.3795 180.895H211.969C219.618 180.895 225.818 174.694 225.818 167.046V90.4599C225.818 85.5927 221.872 81.647 217.005 81.647H71.3795Z" fill="#A6A6A6"/>
<path d="M71.3795 81.647C63.7309 81.647 57.5305 87.8474 57.5305 95.4959V167.046C57.5305 174.694 63.7309 180.895 71.3795 180.895H211.969C219.618 180.895 225.818 174.694 225.818 167.046V90.4599C225.818 85.5927 221.872 81.647 217.005 81.647H71.3795Z" fill="url(#paint0_linear_8_372)"/>
<path d="M71.3795 81.647C63.7309 81.647 57.5305 87.8474 57.5305 95.4959V167.046C57.5305 174.694 63.7309 180.895 71.3795 180.895H211.969C219.618 180.895 225.818 174.694 225.818 167.046V90.4599C225.818 85.5927 221.872 81.647 217.005 81.647H71.3795Z" stroke="white" stroke-width="7.55399"/>
<path d="M202.559 179.386H207.595V174.35V39.036C207.595 33.4734 203.086 28.964 197.523 28.964H46.677C41.1144 28.964 36.605 33.4734 36.605 39.036V164.278C36.605 172.622 43.3691 179.386 51.713 179.386H202.559Z" fill="#D9D9D9"/>
<path d="M202.559 179.386H207.595V174.35V39.036C207.595 33.4734 203.086 28.964 197.523 28.964H46.677C41.1144 28.964 36.605 33.4734 36.605 39.036V164.278C36.605 172.622 43.3691 179.386 51.713 179.386H202.559Z" fill="white"/>
<path d="M202.559 179.386H207.595V174.35V39.036C207.595 33.4734 203.086 28.964 197.523 28.964H46.677C41.1144 28.964 36.605 33.4734 36.605 39.036V164.278C36.605 172.622 43.3691 179.386 51.713 179.386H202.559Z" stroke="white" stroke-width="10.072"/>
<rect x="66.8528" y="99.1388" width="42.7396" height="42.7396" rx="7.55399" stroke="#969BA2" stroke-width="10.072"/>
<line x1="69.0604" y1="69.496" x2="173.325" y2="69.496" stroke="#969BA2" stroke-width="10.072" stroke-linecap="round"/>
<line x1="134.396" y1="111.843" x2="173.325" y2="111.843" stroke="#969BA2" stroke-width="10.072" stroke-linecap="round"/>
<line x1="134.396" y1="131.807" x2="183.609" y2="131.807" stroke="#969BA2" stroke-width="10.072" stroke-linecap="round"/>
</g>
<g filter="url(#filter1_d_8_372)">
<rect x="16" y="165.225" width="136.191" height="75.0906" rx="7.4786" fill="#4587F4" shape-rendering="crispEdges"/>
<path d="M38.3797 217.77C38.1182 217.77 37.8858 217.683 37.6825 217.508C37.5082 217.305 37.421 217.087 37.421 216.855C37.421 216.768 37.4355 216.681 37.4646 216.593C37.4936 216.506 37.5372 216.419 37.5953 216.332L47.0947 202.214L38.2925 188.705C38.2054 188.531 38.1618 188.357 38.1618 188.182C38.1618 187.95 38.2489 187.747 38.4232 187.572C38.5975 187.369 38.8154 187.267 39.0769 187.267H45.3953C45.831 187.267 46.1651 187.384 46.3975 187.616C46.6299 187.819 46.7897 188.008 46.8768 188.182L52.1058 196.113L57.3784 188.182C57.4946 188.008 57.6689 187.819 57.9013 187.616C58.1337 187.384 58.4678 187.267 58.9035 187.267H64.8733C65.1348 187.267 65.3527 187.369 65.527 187.572C65.7303 187.747 65.832 187.95 65.832 188.182C65.832 188.386 65.7739 188.56 65.6577 188.705L56.8119 202.17L66.3985 216.332C66.4566 216.419 66.4856 216.506 66.4856 216.593C66.5147 216.681 66.5292 216.768 66.5292 216.855C66.5292 217.087 66.442 217.305 66.2677 217.508C66.0934 217.683 65.8756 217.77 65.6141 217.77H59.1214C58.6857 217.77 58.3371 217.668 58.0756 217.465C57.8432 217.232 57.6834 217.044 57.5963 216.898L51.8008 208.532L46.136 216.898C46.0489 217.044 45.8891 217.232 45.6567 217.465C45.4243 217.668 45.0902 217.77 44.6545 217.77H38.3797ZM72.2563 217.77C71.9658 217.77 71.7043 217.668 71.4719 217.465C71.2686 217.262 71.1669 217 71.1669 216.681V188.357C71.1669 188.037 71.2686 187.776 71.4719 187.572C71.7043 187.369 71.9658 187.267 72.2563 187.267H76.9624C77.4272 187.267 77.7758 187.398 78.0082 187.659C78.2696 187.892 78.4294 188.081 78.4875 188.226L86.1567 201.996L93.8259 188.226C93.9131 188.081 94.0583 187.892 94.2617 187.659C94.4941 187.398 94.8572 187.267 95.3511 187.267H100.014C100.333 187.267 100.595 187.369 100.798 187.572C101.03 187.776 101.147 188.037 101.147 188.357V216.681C101.147 217 101.03 217.262 100.798 217.465C100.595 217.668 100.333 217.77 100.014 217.77H94.8282C94.5086 217.77 94.2326 217.668 94.0002 217.465C93.7969 217.262 93.6952 217 93.6952 216.681V200.34L88.7712 209.447C88.655 209.708 88.4807 209.941 88.2483 210.144C88.0159 210.348 87.6964 210.449 87.2897 210.449H85.0238C84.6171 210.449 84.2975 210.348 84.0651 210.144C83.8327 209.941 83.6439 209.708 83.4986 209.447L78.5746 200.34V216.681C78.5746 217 78.473 217.262 78.2696 217.465C78.0663 217.668 77.8048 217.77 77.4853 217.77H72.2563ZM109.389 217.77C109.069 217.77 108.808 217.668 108.604 217.465C108.401 217.262 108.299 217 108.299 216.681V188.357C108.299 188.037 108.401 187.776 108.604 187.572C108.808 187.369 109.069 187.267 109.389 187.267H115.141C115.431 187.267 115.678 187.369 115.881 187.572C116.114 187.776 116.23 188.037 116.23 188.357V211.19H129.39C129.709 211.19 129.971 211.306 130.174 211.539C130.406 211.742 130.523 212.003 130.523 212.323V216.681C130.523 217 130.406 217.262 130.174 217.465C129.971 217.668 129.709 217.77 129.39 217.77H109.389Z" fill="white"/>
</g>
<defs>
<filter id="filter0_d_8_372" x="27.254" y="23.928" width="206.656" height="169.374" filterUnits="userSpaceOnUse" color-interpolation-filters="sRGB">
<feFlood flood-opacity="0" result="BackgroundImageFix"/>
<feColorMatrix in="SourceAlpha" type="matrix" values="0 0 0 0 0 0 0 0 0 0 0 0 0 0 0 0 0 0 127 0" result="hardAlpha"/>
<feOffset dy="4.31499"/>
<feGaussianBlur stdDeviation="2.1575"/>
<feComposite in2="hardAlpha" operator="out"/>
<feColorMatrix type="matrix" values="0 0 0 0 0 0 0 0 0 0 0 0 0 0 0 0 0 0 0.25 0"/>
<feBlend mode="normal" in2="BackgroundImageFix" result="effect1_dropShadow_8_372"/>
<feBlend mode="normal" in="SourceGraphic" in2="effect1_dropShadow_8_372" result="shape"/>
</filter>
<filter id="filter1_d_8_372" x="11.685" y="165.225" width="144.821" height="83.7206" filterUnits="userSpaceOnUse" color-interpolation-filters="sRGB">
<feFlood flood-opacity="0" result="BackgroundImageFix"/>
<feColorMatrix in="SourceAlpha" type="matrix" values="0 0 0 0 0 0 0 0 0 0 0 0 0 0 0 0 0 0 127 0" result="hardAlpha"/>
<feOffset dy="4.31499"/>
<feGaussianBlur stdDeviation="2.1575"/>
<feComposite in2="hardAlpha" operator="out"/>
<feColorMatrix type="matrix" values="0 0 0 0 0 0 0 0 0 0 0 0 0 0 0 0 0 0 0.25 0"/>
<feBlend mode="normal" in2="BackgroundImageFix" result="effect1_dropShadow_8_372"/>
<feBlend mode="normal" in="SourceGraphic" in2="effect1_dropShadow_8_372" result="shape"/>
</filter>
<linearGradient id="paint0_linear_8_372" x1="141.674" y1="91.7131" x2="141.674" y2="397.538" gradientUnits="userSpaceOnUse">
<stop stop-color="white"/>
<stop offset="1" stop-opacity="0"/>
</linearGradient>
</defs>
</svg>
